<mxfile host="app.diagrams.net" modified="2023-09-15T09:26:47.366Z" agent="Mozilla/5.0 (Macintosh; Intel Mac OS X 10_15_7) AppleWebKit/537.36 (KHTML, like Gecko) Chrome/116.0.0.0 Safari/537.36" etag="9ZBd9msk9SbezIDbwLIz" version="21.7.5" type="github">
  <diagram name="第 1 页" id="NuopFS4DGqE8RgcHxdaR">
    <mxGraphModel dx="1194" dy="587" grid="1" gridSize="10" guides="1" tooltips="1" connect="1" arrows="1" fold="1" page="1" pageScale="1" pageWidth="1169" pageHeight="827" math="0" shadow="0">
      <root>
        <mxCell id="0" />
        <mxCell id="1" parent="0" />
        <mxCell id="3TG7or-gS11FIFGPbmW9-3" value="" style="edgeStyle=orthogonalEdgeStyle;rounded=0;orthogonalLoop=1;jettySize=auto;html=1;" edge="1" parent="1" source="3TG7or-gS11FIFGPbmW9-1" target="3TG7or-gS11FIFGPbmW9-2">
          <mxGeometry relative="1" as="geometry" />
        </mxCell>
        <mxCell id="3TG7or-gS11FIFGPbmW9-1" value="&amp;nbsp;CompletableFuture.supplyAsync(f)" style="rounded=0;whiteSpace=wrap;html=1;" vertex="1" parent="1">
          <mxGeometry x="180" y="200" width="390" height="60" as="geometry" />
        </mxCell>
        <mxCell id="3TG7or-gS11FIFGPbmW9-5" value="" style="edgeStyle=orthogonalEdgeStyle;rounded=0;orthogonalLoop=1;jettySize=auto;html=1;" edge="1" parent="1" source="3TG7or-gS11FIFGPbmW9-2" target="3TG7or-gS11FIFGPbmW9-4">
          <mxGeometry relative="1" as="geometry" />
        </mxCell>
        <mxCell id="3TG7or-gS11FIFGPbmW9-2" value="asyncSupplyStage" style="whiteSpace=wrap;html=1;rounded=0;" vertex="1" parent="1">
          <mxGeometry x="785" y="200" width="120" height="60" as="geometry" />
        </mxCell>
        <mxCell id="3TG7or-gS11FIFGPbmW9-7" value="" style="edgeStyle=orthogonalEdgeStyle;rounded=0;orthogonalLoop=1;jettySize=auto;html=1;" edge="1" parent="1" source="3TG7or-gS11FIFGPbmW9-4" target="3TG7or-gS11FIFGPbmW9-6">
          <mxGeometry relative="1" as="geometry" />
        </mxCell>
        <mxCell id="3TG7or-gS11FIFGPbmW9-4" value="AsyncSupply.run" style="whiteSpace=wrap;html=1;rounded=0;" vertex="1" parent="1">
          <mxGeometry x="985" y="200" width="120" height="60" as="geometry" />
        </mxCell>
        <mxCell id="3TG7or-gS11FIFGPbmW9-9" value="" style="edgeStyle=orthogonalEdgeStyle;rounded=0;orthogonalLoop=1;jettySize=auto;html=1;" edge="1" parent="1" source="3TG7or-gS11FIFGPbmW9-6" target="3TG7or-gS11FIFGPbmW9-8">
          <mxGeometry relative="1" as="geometry" />
        </mxCell>
        <mxCell id="3TG7or-gS11FIFGPbmW9-6" value="f.get, 执行Runnable任务" style="whiteSpace=wrap;html=1;rounded=0;" vertex="1" parent="1">
          <mxGeometry x="1185" y="200" width="120" height="60" as="geometry" />
        </mxCell>
        <mxCell id="3TG7or-gS11FIFGPbmW9-11" value="" style="edgeStyle=orthogonalEdgeStyle;rounded=0;orthogonalLoop=1;jettySize=auto;html=1;" edge="1" parent="1" source="3TG7or-gS11FIFGPbmW9-8" target="3TG7or-gS11FIFGPbmW9-10">
          <mxGeometry relative="1" as="geometry" />
        </mxCell>
        <mxCell id="3TG7or-gS11FIFGPbmW9-8" value="d.completeValue(f.get()); 获取结果后设置result" style="whiteSpace=wrap;html=1;rounded=0;" vertex="1" parent="1">
          <mxGeometry x="1385" y="200" width="255" height="60" as="geometry" />
        </mxCell>
        <mxCell id="3TG7or-gS11FIFGPbmW9-13" value="" style="edgeStyle=orthogonalEdgeStyle;rounded=0;orthogonalLoop=1;jettySize=auto;html=1;" edge="1" parent="1" source="3TG7or-gS11FIFGPbmW9-10" target="3TG7or-gS11FIFGPbmW9-12">
          <mxGeometry relative="1" as="geometry" />
        </mxCell>
        <mxCell id="3TG7or-gS11FIFGPbmW9-10" value="d.postComplete();弹出并尝试触发所有已完成的任务。" style="whiteSpace=wrap;html=1;rounded=0;" vertex="1" parent="1">
          <mxGeometry x="1788.5" y="200" width="272.5" height="60" as="geometry" />
        </mxCell>
        <mxCell id="3TG7or-gS11FIFGPbmW9-12" value="Signaller.tryFire(NESTED), 调用这个方法唤醒阻塞等待的线程" style="whiteSpace=wrap;html=1;rounded=0;" vertex="1" parent="1">
          <mxGeometry x="2170" y="200" width="167.25" height="60" as="geometry" />
        </mxCell>
        <mxCell id="3TG7or-gS11FIFGPbmW9-16" value="" style="edgeStyle=orthogonalEdgeStyle;rounded=0;orthogonalLoop=1;jettySize=auto;html=1;" edge="1" parent="1" source="3TG7or-gS11FIFGPbmW9-14" target="3TG7or-gS11FIFGPbmW9-15">
          <mxGeometry relative="1" as="geometry" />
        </mxCell>
        <mxCell id="3TG7or-gS11FIFGPbmW9-14" value="completableFuture.get(100, TimeUnit.SECONDS);" style="rounded=0;whiteSpace=wrap;html=1;" vertex="1" parent="1">
          <mxGeometry x="180" y="330" width="390" height="60" as="geometry" />
        </mxCell>
        <mxCell id="3TG7or-gS11FIFGPbmW9-18" value="" style="edgeStyle=orthogonalEdgeStyle;rounded=0;orthogonalLoop=1;jettySize=auto;html=1;" edge="1" parent="1" source="3TG7or-gS11FIFGPbmW9-15" target="3TG7or-gS11FIFGPbmW9-17">
          <mxGeometry relative="1" as="geometry" />
        </mxCell>
        <mxCell id="3TG7or-gS11FIFGPbmW9-15" value="获取需要等待的时间, 调用ForkJoinPool.managedBlock(q);即Signaller.block&lt;span style=&quot;background-color: initial;&quot;&gt;进行休眠&lt;/span&gt;" style="whiteSpace=wrap;html=1;rounded=0;" vertex="1" parent="1">
          <mxGeometry x="785" y="330" width="305" height="60" as="geometry" />
        </mxCell>
        <mxCell id="3TG7or-gS11FIFGPbmW9-17" value="被Signaller.tryFire(NESTED唤醒后, 去判断任务状态和result值来做出相应的操作" style="whiteSpace=wrap;html=1;rounded=0;" vertex="1" parent="1">
          <mxGeometry x="1262.5" y="330" width="367.5" height="60" as="geometry" />
        </mxCell>
      </root>
    </mxGraphModel>
  </diagram>
</mxfile>
